<svg version="1.1" preserveAspectRatio="none" xmlns="http://www.w3.org/2000/svg" width="500" height="500" viewBox="0 0 500 500"><rect width="100%" height="100%" fill="#FFFFFF" fill-opacity="1"/><svg viewBox="-47.1485 100.5933 357.63 85.8" width="333" height="79.89094874591058" x="83.5px" y="210.0545px" xmlns="http://www.w3.org/2000/svg" xmlns:xlink="http://www.w3.org/1999/xlink" preserveAspectRatio="none"><defs></defs><style>.companyName {fill:#0B3B63;fill-opacity:1;}.icon2 {fill:#0B3B63;fill-opacity:1;}.icon3 {fill:#FFA8C5;fill-opacity:1;}.icon3-str {stroke:#FFA8C5;stroke-opacity:1;}.shapeStroke-str {stroke:#0B3B63;stroke-opacity:1;}</style><g opacity="1" transform="rotate(60 144.5526 126.3933)">
<svg width="39.0754" height="52.3194" x="144.5526" y="126.3933" version="1.1" preserveAspectRatio="none" viewBox="-13.77558135986328 -22.76799774169922 67.21858215332031 90.0009994506836">
  <g transform="matrix(1 0 0 1 0 0)" class="icon3"><path d="M17.91,25.109c0.283,0.123,7.021,2.999,15.371,2.999c7.943,0,14.506-2.576,19.512-7.651l0.65-0.659l-0.823-0.423  c-0.229-0.117-5.684-2.867-13.618-2.867c-7.168,0-13.919,2.219-20.088,6.595c8.212-8.743,18.012-17.524,29.383-25.016L47.548-3.05  C40.8,1.396,34.603,6.293,28.956,11.367c9.133-18.272-1.117-33.224-1.225-33.377l-0.529-0.758l-0.562,0.737  c-11.69,15.25,0.082,34.991,0.202,35.189l0.054,0.087c-5.546,5.146-10.53,10.437-14.95,15.595  C19.167,11.631,9.774-2.088,9.671-2.234L9.137-2.993L8.574-2.256c-11.11,14.498-1.022,33.042,0.104,35.007  C3.066,39.642-1.504,46.155-5.018,51.598c6.801-16.952-2.392-30.384-2.494-30.528l-0.533-0.76l-0.563,0.737  c-11.688,15.251,0.088,34.995,0.208,35.191l0.238,0.39c-3.653,6.044-5.522,9.893-5.583,10.021l1.227,0.584  c0.096-0.2,4.775-9.824,13.931-22.7l0.115,0.05c0.28,0.122,7.016,2.999,15.37,2.999c7.94,0,14.503-2.576,19.506-7.648l0.65-0.662  l-0.825-0.422c-0.229-0.117-5.678-2.865-13.618-2.865c-6.939,0-13.488,2.086-19.497,6.191c3.978-5.434,8.709-11.352,14.185-17.329  L17.91,25.109z M28.047,10.12l-0.688-30.125C29.452-16.239,34.861-4.187,28.047,10.12z M26.028-18.666l0.653,28.558  C24.223,4.627,19.75-7.83,26.028-18.666z M21.163,24.823l28.381-3.296c-4.399,3.457-9.85,5.221-16.263,5.221  C28.317,26.748,23.864,25.662,21.163,24.823z M50.703,20.027L20.78,23.503c5.644-3.725,11.754-5.635,18.222-5.635  C44.404,17.868,48.671,19.231,50.703,20.027z M9.987,29.894L9.297-0.227C11.398,3.538,16.812,15.572,9.987,29.894z M7.967,1.104  l0.654,28.564C6.162,24.404,1.683,11.94,7.967,1.104z M-7.194,53.202l-0.69-30.132C-5.787,26.828-0.365,38.869-7.194,53.202z   M-9.214,24.411l0.654,28.555C-11.021,47.698-15.492,35.243-9.214,24.411z M4.789,44.297l28.368-3.296  c-4.4,3.455-9.849,5.216-16.258,5.216C11.938,46.217,7.491,45.136,4.789,44.297z M22.616,37.342c5.409,0,9.676,1.363,11.706,2.159  L4.385,42.979C10.029,39.252,16.146,37.342,22.616,37.342z"></path></g>
</svg>
</g><g opacity="1" transform="rotate(0 161.6665 153.5933)">
<svg width="148.815" height="1.6" x="161.6665" y="153.5933" version="1.1" preserveAspectRatio="none" viewBox="0 0 148.815 1.6">
  <defs><rect x="0" y="0" width="148.815" height="1.6" rx="0px" ry="0px" id="id-R9TavoXY1681895886994"></rect></defs><use class="icon3 shapeStroke-str" style="stroke-width:0;" xlink:href="#id-R9TavoXY1681895886994"></use>
</svg>
</g><g opacity="1" transform="rotate(0 -47.1485 100.5933)">
<svg width="357.63" height="28" x="-47.1485" y="100.5933" version="1.1" preserveAspectRatio="none" viewBox="2.32 -33.2 429.16 33.60000000000001">
  <g transform="matrix(1 0 0 1 0 0)" class="companyName"><path id="id-D6z1nYkh15" d="M2.92-0.44L2.32-9.40L3.80-9.40Q4.08-7.60 4.86-6.16Q5.64-4.72 6.82-3.72Q8-2.72 9.54-2.18Q11.08-1.64 12.88-1.64L12.88-1.64Q15.84-1.64 17.56-3.04Q19.28-4.44 19.28-6.84L19.28-6.84Q19.28-7.84 18.94-8.68Q18.60-9.52 17.80-10.30Q17-11.08 15.66-11.84Q14.32-12.60 12.28-13.48L12.28-13.48Q9.80-14.56 8.12-15.56Q6.44-16.56 5.44-17.64Q4.44-18.72 4.02-19.94Q3.60-21.16 3.60-22.72L3.60-22.72Q3.60-24.56 4.26-26.12Q4.92-27.68 6.12-28.82Q7.32-29.96 8.96-30.58Q10.60-31.20 12.56-31.20L12.56-31.20Q14.32-31.20 15.84-30.64Q17.36-30.08 18.92-28.84L18.92-28.84L19.96-30.64L20.88-30.64L21.32-22.68L19.84-22.68Q18.88-25.96 17.06-27.56Q15.24-29.16 12.68-29.16L12.68-29.16Q10.24-29.16 8.80-27.96Q7.36-26.76 7.36-24.72L7.36-24.72Q7.36-23.76 7.68-22.98Q8-22.20 8.72-21.50Q9.44-20.80 10.60-20.10Q11.76-19.40 13.48-18.64L13.48-18.64Q16.44-17.32 18.40-16.18Q20.36-15.04 21.52-13.90Q22.68-12.76 23.16-11.50Q23.64-10.24 23.64-8.68L23.64-8.68Q23.64-6.68 22.84-5Q22.04-3.32 20.60-2.12Q19.16-0.92 17.16-0.26Q15.16 0.40 12.76 0.40L12.76 0.40Q10.48 0.40 8.66-0.24Q6.84-0.88 4.96-2.40L4.96-2.40L3.84-0.44L2.92-0.44Z M57.96 0.40L55.56 0.40L36.56-24.64L36.40-24.64L36.40-7.56Q36.40-5.56 36.54-4.40Q36.68-3.24 37.10-2.60Q37.52-1.96 38.30-1.76Q39.08-1.56 40.36-1.52L40.36-1.52L40.36 0L29.60 0L29.60-1.52Q31-1.56 31.86-1.78Q32.72-2 33.20-2.60Q33.68-3.20 33.84-4.30Q34-5.40 34-7.28L34-7.28L34-23.52Q34-25.20 33.86-26.30Q33.72-27.40 33.30-28.04Q32.88-28.68 32.08-28.94Q31.28-29.20 30-29.28L30-29.28L30-30.80L37.92-30.80L55.40-7.48L55.56-7.48L55.56-23.24Q55.56-25.20 55.42-26.38Q55.28-27.56 54.86-28.20Q54.44-28.84 53.66-29.04Q52.88-29.24 51.60-29.28L51.60-29.28L51.60-30.80L62.36-30.80L62.36-29.28Q60.96-29.24 60.10-29.02Q59.24-28.80 58.76-28.20Q58.28-27.60 58.12-26.48Q57.96-25.36 57.96-23.52L57.96-23.52L57.96 0.40Z M76.28-28.40L76.28-16.92Q78.44-16.92 79.90-17.18Q81.36-17.44 82.22-18Q83.08-18.56 83.46-19.44Q83.84-20.32 83.84-21.52L83.84-21.52L85.24-21.52L85.24-10.60L83.84-10.60Q83.84-11.80 83.50-12.68Q83.16-13.56 82.30-14.14Q81.44-14.72 79.98-15.02Q78.52-15.32 76.28-15.32L76.28-15.32L76.28-6.28Q76.28-4.96 76.60-4.10Q76.92-3.24 77.70-2.70Q78.48-2.16 79.76-1.94Q81.04-1.72 82.92-1.72L82.92-1.72Q85.04-1.72 86.52-2.02Q88-2.32 89-3.04Q90-3.76 90.60-4.94Q91.20-6.12 91.60-7.88L91.60-7.88L93.12-7.88L92.52 0L67.68 0L67.68-1.52Q69.08-1.56 69.94-1.76Q70.80-1.96 71.28-2.44Q71.76-2.92 71.92-3.80Q72.08-4.68 72.08-6.08L72.08-6.08L72.08-24.72Q72.08-26.12 71.94-26.98Q71.80-27.84 71.38-28.34Q70.96-28.84 70.16-29.02Q69.36-29.20 68.08-29.28L68.08-29.28L68.08-30.80L91.20-30.80L91.56-23.76L90.16-23.76Q89.92-25.36 89.38-26.38Q88.84-27.40 87.90-28Q86.96-28.60 85.52-28.84Q84.08-29.08 82.04-29.08L82.04-29.08L76.96-29.08Q76.28-29.08 76.28-28.40L76.28-28.40Z M127.72-24.44L127.72-6.36Q127.72-4.84 127.88-3.90Q128.04-2.96 128.50-2.46Q128.96-1.96 129.82-1.76Q130.68-1.56 132.08-1.52L132.08-1.52L132.08 0L119.12 0L119.12-1.52Q120.52-1.56 121.38-1.76Q122.24-1.96 122.72-2.44Q123.20-2.92 123.36-3.80Q123.52-4.68 123.52-6.08L123.52-6.08L123.52-14.76L107.32-14.76L107.32-6.36Q107.32-4.84 107.48-3.90Q107.64-2.96 108.10-2.46Q108.56-1.96 109.42-1.76Q110.28-1.56 111.68-1.52L111.68-1.52L111.68 0L98.72 0L98.72-1.52Q100.12-1.56 100.98-1.76Q101.84-1.96 102.32-2.44Q102.80-2.92 102.96-3.80Q103.12-4.68 103.12-6.08L103.12-6.08L103.12-24.72Q103.12-26.12 102.98-26.98Q102.84-27.84 102.42-28.34Q102.00-28.84 101.20-29.02Q100.40-29.20 99.12-29.28L99.12-29.28L99.12-30.80L111.28-30.80L111.28-29.28Q110.00-29.24 109.22-29.04Q108.44-28.84 108.02-28.32Q107.60-27.80 107.46-26.88Q107.32-25.96 107.32-24.44L107.32-24.44L107.32-16.76L123.52-16.76L123.52-24.72Q123.52-26.12 123.38-26.98Q123.24-27.84 122.82-28.34Q122.40-28.84 121.60-29.02Q120.80-29.20 119.52-29.28L119.52-29.28L119.52-30.80L131.68-30.80L131.68-29.28Q130.40-29.24 129.62-29.04Q128.84-28.84 128.42-28.32Q128.00-27.80 127.86-26.88Q127.72-25.96 127.72-24.44L127.72-24.44Z M157.08-6.84L155.44-11.16L144.76-11.16Q144.08-9.52 143.60-8.26Q143.12-7 142.82-6.08Q142.52-5.16 142.40-4.52Q142.28-3.88 142.28-3.48L142.28-3.48Q142.28-2.36 143-1.94Q143.72-1.52 145.40-1.52L145.40-1.52L145.40 0L135.68 0L135.68-1.52Q136.60-1.64 137.26-1.84Q137.92-2.04 138.42-2.40Q138.92-2.76 139.30-3.34Q139.68-3.92 140.04-4.76L140.04-4.76L150.44-30.80L152.16-30.80L161.24-8.24Q162.16-6 162.84-4.66Q163.52-3.32 164.16-2.64Q164.80-1.96 165.54-1.76Q166.28-1.56 167.32-1.56L167.32-1.56L167.32 0L154.28 0L154.28-1.56Q156.40-1.56 157.20-1.96Q158-2.36 158-3.28L158-3.28Q158-3.68 157.96-4.02Q157.92-4.36 157.82-4.76Q157.72-5.16 157.54-5.66Q157.36-6.16 157.08-6.84L157.08-6.84ZM150.24-24.96L145.56-13.16L154.68-13.16L150.24-24.96Z M170.88-22.56L169.72-22.56Q169.56-23.68 169.34-25Q169.12-26.32 168.90-27.56Q168.68-28.80 168.54-29.78Q168.40-30.76 168.40-31.24L168.40-31.24Q168.40-32.08 168.94-32.64Q169.48-33.20 170.28-33.20L170.28-33.20Q171.08-33.20 171.62-32.64Q172.16-32.08 172.16-31.20L172.16-31.20Q172.16-30.72 172.02-29.72Q171.88-28.72 171.68-27.52Q171.48-26.32 171.26-25Q171.04-23.68 170.88-22.56L170.88-22.56Z M179.52-0.44L178.92-9.40L180.40-9.40Q180.68-7.60 181.46-6.16Q182.24-4.72 183.42-3.72Q184.60-2.72 186.14-2.18Q187.68-1.64 189.48-1.64L189.48-1.64Q192.44-1.64 194.16-3.04Q195.88-4.44 195.88-6.84L195.88-6.84Q195.88-7.84 195.54-8.68Q195.20-9.52 194.40-10.30Q193.60-11.08 192.26-11.84Q190.92-12.60 188.88-13.48L188.88-13.48Q186.40-14.56 184.72-15.56Q183.04-16.56 182.04-17.64Q181.04-18.72 180.62-19.94Q180.20-21.16 180.20-22.72L180.20-22.72Q180.20-24.56 180.86-26.12Q181.52-27.68 182.72-28.82Q183.92-29.96 185.56-30.58Q187.20-31.20 189.16-31.20L189.16-31.20Q190.92-31.20 192.44-30.64Q193.96-30.08 195.52-28.84L195.52-28.84L196.56-30.64L197.48-30.64L197.92-22.68L196.44-22.68Q195.48-25.96 193.66-27.56Q191.84-29.16 189.28-29.16L189.28-29.16Q186.84-29.16 185.40-27.96Q183.96-26.76 183.96-24.72L183.96-24.72Q183.96-23.76 184.28-22.98Q184.60-22.20 185.32-21.50Q186.04-20.80 187.20-20.10Q188.36-19.40 190.08-18.64L190.08-18.64Q193.04-17.32 195.00-16.18Q196.96-15.04 198.12-13.90Q199.28-12.76 199.76-11.50Q200.24-10.24 200.24-8.68L200.24-8.68Q200.24-6.68 199.44-5Q198.64-3.32 197.20-2.12Q195.76-0.92 193.76-0.26Q191.76 0.40 189.36 0.40L189.36 0.40Q187.08 0.40 185.26-0.24Q183.44-0.88 181.56-2.40L181.56-2.40L180.44-0.44L179.52-0.44Z M237.44-6.84L235.80-11.16L225.12-11.16Q224.44-9.52 223.96-8.26Q223.48-7 223.18-6.08Q222.88-5.16 222.76-4.52Q222.64-3.88 222.64-3.48L222.64-3.48Q222.64-2.36 223.36-1.94Q224.08-1.52 225.76-1.52L225.76-1.52L225.76 0L216.04 0L216.04-1.52Q216.96-1.64 217.62-1.84Q218.28-2.04 218.78-2.40Q219.28-2.76 219.66-3.34Q220.04-3.92 220.40-4.76L220.40-4.76L230.80-30.80L232.52-30.80L241.60-8.24Q242.52-6 243.20-4.66Q243.88-3.32 244.52-2.64Q245.16-1.96 245.90-1.76Q246.64-1.56 247.68-1.56L247.68-1.56L247.68 0L234.64 0L234.64-1.56Q236.76-1.56 237.56-1.96Q238.36-2.36 238.36-3.28L238.36-3.28Q238.36-3.68 238.32-4.02Q238.28-4.36 238.18-4.76Q238.08-5.16 237.90-5.66Q237.72-6.16 237.44-6.84L237.44-6.84ZM230.60-24.96L225.92-13.16L235.04-13.16L230.60-24.96Z M275.48-23.08L275.48-23.08Q275.48-20.96 274.80-19.28Q274.12-17.60 272.66-16.44Q271.20-15.28 268.86-14.64Q266.52-14 263.16-14L263.16-14L259.56-14L259.56-6.28Q259.56-4.80 259.74-3.86Q259.92-2.92 260.50-2.40Q261.08-1.88 262.18-1.70Q263.28-1.52 265.08-1.52L265.08-1.52L265.08 0L250.96 0L250.96-1.52Q252.36-1.56 253.22-1.76Q254.08-1.96 254.56-2.44Q255.04-2.92 255.20-3.80Q255.36-4.68 255.36-6.08L255.36-6.08L255.36-24.72Q255.36-26.12 255.22-26.98Q255.08-27.84 254.66-28.34Q254.24-28.84 253.44-29.02Q252.64-29.20 251.36-29.28L251.36-29.28L251.36-30.80L263.92-30.80Q269.44-30.80 272.46-28.76Q275.48-26.72 275.48-23.08ZM259.56-28.24L259.56-16L262.40-16Q266.40-16 268.34-17.54Q270.28-19.08 270.28-22.60L270.28-22.60Q270.28-26 268.74-27.46Q267.20-28.92 263.92-28.92L263.92-28.92L260.24-28.92Q259.56-28.92 259.56-28.24L259.56-28.24Z M304.96-23.08L304.96-23.08Q304.96-20.96 304.28-19.28Q303.60-17.60 302.14-16.44Q300.68-15.28 298.34-14.64Q296-14 292.64-14L292.64-14L289.04-14L289.04-6.28Q289.04-4.80 289.22-3.86Q289.40-2.92 289.98-2.40Q290.56-1.88 291.66-1.70Q292.76-1.52 294.56-1.52L294.56-1.52L294.56 0L280.44 0L280.44-1.52Q281.84-1.56 282.70-1.76Q283.56-1.96 284.04-2.44Q284.52-2.92 284.68-3.80Q284.84-4.68 284.84-6.08L284.84-6.08L284.84-24.72Q284.84-26.12 284.70-26.98Q284.56-27.84 284.14-28.34Q283.72-28.84 282.92-29.02Q282.12-29.20 280.84-29.28L280.84-29.28L280.84-30.80L293.40-30.80Q298.92-30.80 301.94-28.76Q304.96-26.72 304.96-23.08ZM289.04-28.24L289.04-16L291.88-16Q295.88-16 297.82-17.54Q299.76-19.08 299.76-22.60L299.76-22.60Q299.76-26 298.22-27.46Q296.68-28.92 293.40-28.92L293.40-28.92L289.72-28.92Q289.04-28.92 289.04-28.24L289.04-28.24Z M326.96-6.84L325.32-11.16L314.64-11.16Q313.96-9.52 313.48-8.26Q313-7 312.70-6.08Q312.40-5.16 312.28-4.52Q312.16-3.88 312.16-3.48L312.16-3.48Q312.16-2.36 312.88-1.94Q313.60-1.52 315.28-1.52L315.28-1.52L315.28 0L305.56 0L305.56-1.52Q306.48-1.64 307.14-1.84Q307.80-2.04 308.30-2.40Q308.80-2.76 309.18-3.34Q309.56-3.92 309.92-4.76L309.92-4.76L320.32-30.80L322.04-30.80L331.12-8.24Q332.04-6 332.72-4.66Q333.40-3.32 334.04-2.64Q334.68-1.96 335.42-1.76Q336.16-1.56 337.20-1.56L337.20-1.56L337.20 0L324.16 0L324.16-1.56Q326.28-1.56 327.08-1.96Q327.88-2.36 327.88-3.28L327.88-3.28Q327.88-3.68 327.84-4.02Q327.80-4.36 327.70-4.76Q327.60-5.16 327.42-5.66Q327.24-6.16 326.96-6.84L326.96-6.84ZM320.12-24.96L315.44-13.16L324.56-13.16L320.12-24.96Z M365-23.08L365-23.08Q365-19.88 363.08-17.76Q361.16-15.64 356.96-14.92L356.96-14.92L365.80-4.28Q366.88-2.96 368.18-2.38Q369.48-1.80 371.28-1.52L371.28-1.52L371.28 0L363.56 0L353.76-12.56Q353.24-13.24 352.78-13.64Q352.32-14.04 351.82-14.26Q351.32-14.48 350.66-14.54Q350-14.60 349.08-14.60L349.08-14.60L349.08-6.28Q349.08-4.80 349.26-3.86Q349.44-2.92 350.02-2.40Q350.60-1.88 351.70-1.70Q352.80-1.52 354.60-1.52L354.60-1.52L354.60 0L340.48 0L340.48-1.52Q341.88-1.56 342.74-1.76Q343.60-1.96 344.08-2.44Q344.56-2.92 344.72-3.80Q344.88-4.68 344.88-6.08L344.88-6.08L344.88-24.72Q344.88-26.12 344.74-26.98Q344.60-27.84 344.18-28.34Q343.76-28.84 342.96-29.02Q342.16-29.20 340.88-29.28L340.88-29.28L340.88-30.80L353.44-30.80Q358.96-30.80 361.98-28.76Q365-26.72 365-23.08ZM349.08-28.24L349.08-16.60L351.92-16.60Q355.92-16.60 357.86-18.06Q359.80-19.52 359.80-22.88L359.80-22.88Q359.80-26.12 358.26-27.52Q356.72-28.92 353.44-28.92L353.44-28.92L349.76-28.92Q349.08-28.92 349.08-28.24L349.08-28.24Z M382.60-28.40L382.60-16.92Q384.76-16.92 386.22-17.18Q387.68-17.44 388.54-18Q389.40-18.56 389.78-19.44Q390.16-20.32 390.16-21.52L390.16-21.52L391.56-21.52L391.56-10.60L390.16-10.60Q390.16-11.80 389.82-12.68Q389.48-13.56 388.62-14.14Q387.76-14.72 386.30-15.02Q384.84-15.32 382.60-15.32L382.60-15.32L382.60-6.28Q382.60-4.96 382.92-4.10Q383.24-3.24 384.02-2.70Q384.80-2.16 386.08-1.94Q387.36-1.72 389.24-1.72L389.24-1.72Q391.36-1.72 392.84-2.02Q394.32-2.32 395.32-3.04Q396.32-3.76 396.92-4.94Q397.52-6.12 397.92-7.88L397.92-7.88L399.44-7.88L398.84 0L374 0L374-1.52Q375.40-1.56 376.26-1.76Q377.12-1.96 377.60-2.44Q378.08-2.92 378.24-3.80Q378.40-4.68 378.40-6.08L378.40-6.08L378.40-24.72Q378.40-26.12 378.26-26.98Q378.12-27.84 377.70-28.34Q377.28-28.84 376.48-29.02Q375.68-29.20 374.40-29.28L374.40-29.28L374.40-30.80L397.52-30.80L397.88-23.76L396.48-23.76Q396.24-25.36 395.70-26.38Q395.16-27.40 394.22-28Q393.28-28.60 391.84-28.84Q390.40-29.08 388.36-29.08L388.36-29.08L383.28-29.08Q382.60-29.08 382.60-28.40L382.60-28.40Z M431.48-7.88L430.88 0L405.04 0L405.04-1.52Q406.44-1.56 407.30-1.76Q408.16-1.96 408.64-2.44Q409.12-2.92 409.28-3.80Q409.44-4.68 409.44-6.08L409.44-6.08L409.44-24.72Q409.44-26.12 409.30-26.98Q409.16-27.84 408.74-28.34Q408.32-28.84 407.52-29.02Q406.72-29.20 405.44-29.28L405.44-29.28L405.44-30.80L417.60-30.80L417.60-29.28Q416.32-29.24 415.54-29.04Q414.76-28.84 414.34-28.32Q413.92-27.80 413.78-26.88Q413.64-25.96 413.64-24.44L413.64-24.44L413.64-7.20Q413.64-5.52 413.98-4.46Q414.32-3.40 415.14-2.82Q415.96-2.24 417.32-2.02Q418.68-1.80 420.76-1.80L420.76-1.80Q423.04-1.80 424.60-2.06Q426.16-2.32 427.22-2.98Q428.28-3.64 428.90-4.82Q429.52-6 429.96-7.88L429.96-7.88L431.48-7.88Z"/></g>
</svg>
</g><g opacity="1" transform="rotate(0 -47.1485 153.5933)">
<svg width="148.815" height="1.6" x="-47.1485" y="153.5933" version="1.1" preserveAspectRatio="none" viewBox="0 0 148.815 1.6">
  <defs><rect x="0" y="0" width="148.815" height="1.6" rx="0px" ry="0px" id="id-YLqQhLpe-1681895886994"></rect></defs><use class="icon3 shapeStroke-str" style="stroke-width:0;" xlink:href="#id-YLqQhLpe-1681895886994"></use>
</svg>
</g></svg></svg>