<svg version="1.1" preserveAspectRatio="none" xmlns="http://www.w3.org/2000/svg" width="500" height="500" viewBox="0 0 500 500"><rect width="100%" height="100%" fill="#FFFFFF" fill-opacity="1"/><svg viewBox="63.7548 220.6219 798.5837 79.3719" width="333" height="33.097147737926534" x="83.5px" y="233.4514px" xmlns="http://www.w3.org/2000/svg" xmlns:xlink="http://www.w3.org/1999/xlink" preserveAspectRatio="none"><defs></defs><style>.icon1 {fill:#0C0C0C;fill-opacity:1;}.icon2 {fill:#DFDFDF;fill-opacity:1;}.icon3 {fill:#929292;fill-opacity:1;}.icon3-str {stroke:#929292;stroke-opacity:1;}</style><g opacity="1" transform="rotate(0 410.6803 220.6219)">
<svg width="54" height="79.3719" x="410.6803" y="220.6219" version="1.1" preserveAspectRatio="none" viewBox="13259.69140625 5395.4404296875 33478.9921875 49208.9921875">
  <g transform="matrix(-1 0 0 1 59998.375 0)" class="icon1"><defs></defs><g><path class="fil0" d="M44750 54476c-2643,-2420 -4749,-5013 -6470,-7713 -3760,4204 -7837,5291 -11739,4882 -3918,-410 -7630,-2332 -10663,-4100 -191,-110 -256,-355 -145,-545 28,-49 66,-90 108,-121 1838,-1488 3840,-2620 5866,-3428 3251,-1297 6567,-1760 9375,-1525 2195,184 4092,798 5427,1779 -165,-314 -326,-630 -483,-946 -493,-994 -946,-1998 -1367,-3007 -38,17 -80,29 -124,33 -7102,753 -11792,-1700 -15029,-5397 -3208,-3663 -4962,-8533 -6229,-12692 -64,-211 55,-433 266,-497 47,-14 94,-19 141,-16l0 -1c1917,127 3771,453 5533,936 1427,392 2792,886 4079,1462 -365,-725 -658,-1477 -891,-2247 -1138,-3768 -803,-7936 -346,-11419 28,-218 229,-372 447,-344 55,7 106,25 151,52 2086,1120 3905,2527 5433,4081 909,924 1715,1900 2415,2900 491,-2239 1560,-4204 2885,-5961 1459,-1934 3232,-3617 4878,-5141 161,-149 413,-139 563,22 34,36 59,77 77,121l1 -1c891,2199 1392,4450 1573,6628 291,3484 -235,6791 -1282,9411 -1065,2666 -2679,4635 -4537,5388 -345,140 -697,238 -1056,292 -118,521 -292,1003 -525,1438 -222,415 -496,786 -823,1108 -10,10 -21,20 -32,29 1234,3472 2605,6970 4395,10338 33,-635 128,-1284 275,-1943 -49,-45 -87,-102 -109,-169 -7,-22 -13,-45 -16,-68 -213,-211 -391,-455 -537,-726 -618,-1154 -610,-2804 -38,-4567 557,-1716 1651,-3556 3219,-5151 975,-991 2135,-1889 3465,-2604 45,-27 96,-45 151,-52 218,-28 418,125 447,344 291,2217 504,4873 -224,7281 -733,2427 -2403,4581 -5858,5760 -219,967 -325,1907 -278,2807 123,220 248,439 375,658 2244,3866 5121,7530 9082,10754 121,99 173,233 161,394 -8,117 -63,279 -153,449 -74,140 -181,303 -309,461 -314,386 -766,734 -1260,699 -105,-7 -198,-55 -265,-127zm-27393 -7749c3479,-580 6709,-976 9902,-1131 3356,-163 6666,-60 10173,375 -129,-273 -294,-531 -491,-774 -1123,-1385 -3277,-2251 -5924,-2474 -2698,-227 -5886,220 -9016,1468 -1587,633 -3159,1473 -4644,2536zm20105 -250c-3512,-441 -6823,-546 -10180,-383 -3290,160 -6629,579 -10250,1195 2812,1595 6139,3202 9590,3563 3592,376 7346,-603 10840,-4375zm5353 -19969c-466,926 -973,1878 -1487,2842 -1435,2691 -2918,5473 -3686,8094 2823,-1109 4219,-2972 4848,-5053 574,-1901 522,-3998 325,-5882zm-5659 10821c780,-2678 2281,-5492 3733,-8214 514,-963 1021,-1915 1489,-2847 -893,572 -1693,1232 -2393,1944 -1478,1502 -2507,3231 -3028,4838 -506,1560 -532,2987 -18,3945 64,119 136,231 218,335zm-22766 -15290c2906,3292 5797,5907 8940,8306 3125,2385 6497,4557 10378,6968 -856,-2337 -1568,-4694 -2221,-7035 -3637,-1248 -5997,-3191 -7494,-5487 -1546,-769 -3218,-1419 -4984,-1904 -1476,-405 -3021,-696 -4618,-847zm19602 16037c-4127,-2557 -7683,-4829 -10965,-7334 -2996,-2287 -5766,-4769 -8537,-7841 1206,3727 2866,7822 5616,10962 3064,3499 7509,5825 14247,5138 -123,-308 -243,-616 -361,-925zm4523 -31220c-570,1988 -1337,3807 -2111,5642 -1291,3061 -2600,6167 -3017,10157 358,1384 481,2701 358,3870 209,-47 416,-112 619,-194 1654,-670 3112,-2477 4096,-4941 1003,-2511 1506,-5690 1226,-9052 -150,-1802 -526,-3654 -1171,-5480zm-5482 14625c530,-3527 1729,-6370 2913,-9176 752,-1783 1497,-3551 2056,-5466 -1372,1292 -2781,2704 -3973,4284 -1407,1866 -2509,3968 -2879,6389 -2,16 -6,32 -10,48 815,1305 1450,2633 1894,3921zm-9713 -10560c1763,2940 3450,5838 4867,8768 1545,3196 2766,6426 3407,9782l15 5c20,-50 50,-97 91,-137 270,-266 496,-572 679,-914 842,-1572 807,-3894 -13,-6420 -835,-2574 -2481,-5340 -4845,-7743 -1216,-1237 -2621,-2376 -4202,-3342zm7726 18348c-646,-3201 -1825,-6296 -3308,-9363 -1447,-2993 -3186,-5965 -5001,-8986 -379,3199 -566,6871 434,10182 325,1077 778,2117 1393,3093 68,55 115,129 136,211 1315,1989 3328,3694 6346,4864zm4865 11369c264,592 541,1182 832,1768 1997,4026 4652,7891 8439,11385 157,-50 331,-214 475,-390 90,-111 166,-228 222,-333l3 -6c-3947,-3254 -6826,-6937 -9078,-10816 -309,-533 -606,-1069 -893,-1608z"></path></g></g>
</svg>
</g><g opacity="1" transform="rotate(0 63.7548 230.3078)">
<svg width="326.9255" height="60" x="63.7548" y="230.3078" version="1.1" preserveAspectRatio="none" viewBox="2.0313 -31.875 177.5593 32.5782">
  <g transform="matrix(1 0 0 1 0 0)" class="icon1"><path id="id-D6z1nYkh7" d="M2.03-4.69L2.03-4.69L3.75-5.35Q5-3.32 7.15-2.09Q9.30-0.86 12.03-0.86L12.03-0.86Q15.39-0.86 17.52-2.52Q19.65-4.18 19.65-7.11L19.65-7.11Q19.65-8.52 19.06-9.59Q18.48-10.66 17.17-11.46Q15.86-12.27 14.82-12.68Q13.79-13.09 11.88-13.75L11.88-13.75Q10.12-14.34 9.18-14.67Q8.24-15 6.82-15.74Q5.39-16.48 4.65-17.23Q3.91-17.97 3.34-19.16Q2.77-20.35 2.77-21.80L2.77-21.80Q2.77-25.08 5.21-26.99Q7.66-28.91 11.88-28.91L11.88-28.91Q14.88-28.91 17.19-27.52Q19.49-26.13 20.59-24.14L20.59-24.14L19.02-23.52Q16.56-27.30 11.76-27.30L11.76-27.30Q8.40-27.30 6.50-25.80Q4.61-24.30 4.61-21.80L4.61-21.80Q4.61-20.66 5.12-19.71Q5.63-18.75 6.29-18.13Q6.95-17.50 8.22-16.89Q9.49-16.29 10.37-15.96Q11.25-15.63 12.85-15.12L12.85-15.12Q14.49-14.57 15.47-14.20Q16.45-13.83 17.73-13.13Q19.02-12.42 19.75-11.66Q20.47-10.90 21.00-9.75Q21.52-8.59 21.52-7.19L21.52-7.19Q21.52-3.48 18.98-1.39Q16.45 0.70 11.95 0.70L11.95 0.70Q5.27 0.70 2.03-4.69Z M33.08 0L31.29 0L31.29-28.16L33.43-28.16L45.86-8.01L49.22-2.54L49.37-2.54Q49.10-5.74 49.10-9.69L49.10-9.69L49.10-28.16L50.93-28.16L50.93 0L48.75 0L36.01-20.63L32.97-25.63L32.85-25.63Q33.08-21.99 33.08-18.01L33.08-18.01L33.08 0Z M80.70 0L63.20 0L63.20-28.16L80.23-28.16L80.23-26.60L64.99-26.60L64.99-15.39L78.78-15.39L78.78-13.87L64.99-13.87L64.99-1.56L80.70-1.56L80.70 0Z M91.83 0L90.03 0L90.03-28.16L91.83-28.16L91.83-15.31L107.53-15.31L107.53-28.16L109.37-28.16L109.37 0L107.53 0L107.53-13.79L91.83-13.79L91.83 0Z M127.41-21.95L123.03-10.39L135.18-10.39L130.85-21.95Q129.60-25.35 129.21-26.48L129.21-26.48L129.05-26.48Q128.89-26.05 127.41-21.95L127.41-21.95ZM119.17 0L117.14 0L127.96-28.16L130.26-28.16L141.12 0L139.05 0L135.73-8.91L122.49-8.91L119.17 0Z M148.66-21.17L147.09-21.17L150.41-31.88L153.27-31.88L148.66-21.17Z M160.10-4.69L160.10-4.69L161.82-5.35Q163.07-3.32 165.22-2.09Q167.36-0.86 170.10-0.86L170.10-0.86Q173.46-0.86 175.59-2.52Q177.72-4.18 177.72-7.11L177.72-7.11Q177.72-8.52 177.13-9.59Q176.54-10.66 175.24-11.46Q173.93-12.27 172.89-12.68Q171.86-13.09 169.94-13.75L169.94-13.75Q168.18-14.34 167.25-14.67Q166.31-15 164.88-15.74Q163.46-16.48 162.72-17.23Q161.97-17.97 161.41-19.16Q160.84-20.35 160.84-21.80L160.84-21.80Q160.84-25.08 163.28-26.99Q165.72-28.91 169.94-28.91L169.94-28.91Q172.95-28.91 175.25-27.52Q177.56-26.13 178.65-24.14L178.65-24.14L177.09-23.52Q174.63-27.30 169.82-27.30L169.82-27.30Q166.47-27.30 164.57-25.80Q162.68-24.30 162.68-21.80L162.68-21.80Q162.68-20.66 163.18-19.71Q163.69-18.75 164.36-18.13Q165.02-17.50 166.29-16.89Q167.56-16.29 168.44-15.96Q169.32-15.63 170.92-15.12L170.92-15.12Q172.56-14.57 173.54-14.20Q174.51-13.83 175.80-13.13Q177.09-12.42 177.81-11.66Q178.54-10.90 179.06-9.75Q179.59-8.59 179.59-7.19L179.59-7.19Q179.59-3.48 177.05-1.39Q174.51 0.70 170.02 0.70L170.02 0.70Q163.34 0.70 160.10-4.69Z"/></g>
</svg>
</g><g opacity="1" transform="rotate(0 484.6803 230.3078)">
<svg width="377.6582" height="60" x="484.6803" y="230.3078" version="1.1" preserveAspectRatio="none" viewBox="0.0391 -28.1641 177.2734 28.1641">
  <g transform="matrix(1 0 0 1 0 0)" class="icon1"><path id="id-a8WAvAAzme7" d="M10.31-21.95L5.94-10.39L18.09-10.39L13.75-21.95Q12.50-25.35 12.11-26.48L12.11-26.48L11.95-26.48Q11.80-26.05 10.31-21.95L10.31-21.95ZM2.07 0L0.04 0L10.86-28.16L13.16-28.16L24.02 0L21.95 0L18.63-8.91L5.39-8.91L2.07 0Z M32.35 0L30.55 0L30.55-28.16L40.98-28.16Q44.85-28.16 47.18-26.00Q49.50-23.83 49.50-20.20L49.50-20.20Q49.50-16.48 47.10-14.34Q44.70-12.19 40.95-12.19L40.95-12.19L32.35-12.19L32.35 0ZM32.35-26.60L32.35-13.67L40.55-13.67Q43.84-13.67 45.73-15.35Q47.63-17.03 47.63-20.20L47.63-20.20Q47.63-23.28 45.75-24.94Q43.88-26.60 40.48-26.60L40.48-26.60L32.35-26.60Z M59.66 0L57.87 0L57.87-28.16L68.30-28.16Q72.16-28.16 74.49-26.00Q76.81-23.83 76.81-20.20L76.81-20.20Q76.81-16.48 74.41-14.34Q72.01-12.19 68.26-12.19L68.26-12.19L59.66-12.19L59.66 0ZM59.66-26.60L59.66-13.67L67.87-13.67Q71.15-13.67 73.04-15.35Q74.94-17.03 74.94-20.20L74.94-20.20Q74.94-23.28 73.06-24.94Q71.19-26.60 67.79-26.60L67.79-26.60L59.66-26.60Z M88.19-21.95L83.81-10.39L95.96-10.39L91.63-21.95Q90.38-25.35 89.98-26.48L89.98-26.48L89.83-26.48Q89.67-26.05 88.19-21.95L88.19-21.95ZM79.95 0L77.91 0L88.73-28.16L91.04-28.16L101.90 0L99.83 0L96.51-8.91L83.27-8.91L79.95 0Z M110.23-26.60L110.23-14.30L118.90-14.30Q122.06-14.30 123.82-16.00Q125.58-17.70 125.58-20.51L125.58-20.51Q125.58-23.16 123.80-24.88Q122.02-26.60 118.55-26.60L118.55-26.60L110.23-26.60ZM110.23 0L108.43 0L108.43-28.16L119.05-28.16Q123.08-28.16 125.25-26.00Q127.41-23.83 127.41-20.59L127.41-20.59Q127.41-17.38 125.71-15.59Q124.02-13.79 122.02-13.36L122.02-13.36Q123.70-12.62 124.62-11.25Q125.54-9.88 126.05-7.70L126.05-7.70Q126.13-7.34 126.34-6.45Q126.55-5.55 126.63-5.29Q126.71-5.04 126.89-4.36Q127.06-3.67 127.16-3.42Q127.26-3.16 127.43-2.62Q127.61-2.07 127.77-1.74Q127.92-1.41 128.16-0.94Q128.39-0.47 128.66 0L128.66 0L126.59 0Q126.01-1.09 125.56-2.38Q125.11-3.67 124.89-4.49Q124.68-5.31 124.13-7.58L124.13-7.58Q123.86-8.59 123.53-9.39Q123.20-10.20 122.59-11.02Q121.98-11.84 120.99-12.29Q119.99-12.73 118.66-12.73L118.66-12.73L110.23-12.73L110.23 0Z M153.52 0L136.02 0L136.02-28.16L153.05-28.16L153.05-26.60L137.81-26.60L137.81-15.39L151.60-15.39L151.60-13.87L137.81-13.87L137.81-1.56L153.52-1.56L153.52 0Z M177.31 0L161.65 0L161.65-28.16L163.45-28.16L163.45-1.56L177.31-1.56L177.31 0Z"/></g>
</svg>
</g></svg></svg>