<svg version="1.1" preserveAspectRatio="none" xmlns="http://www.w3.org/2000/svg" width="500" height="500" viewBox="0 0 500 500"><rect width="100%" height="100%" fill="#F9F7F7" fill-opacity="1"/><svg viewBox="107.9346 148.1666 288.0987 170.7" width="333" height="197.3042571868599" x="83.5px" y="151.3479px" xmlns="http://www.w3.org/2000/svg" xmlns:xlink="http://www.w3.org/1999/xlink" preserveAspectRatio="none"><defs></defs><style>.aq6WP-wJgVstrokeColor-str {stroke:#0C0C0C;stroke-opacity:1;}.companyName {fill:#2C3E57;fill-opacity:1;}.icon1 {fill:#9C8B58;fill-opacity:1;}.icon3 {fill:#C8B889;fill-opacity:1;}.icon3-str {stroke:#C8B889;stroke-opacity:1;}.shape {fill:#9C8B58;fill-opacity:1;}.shapeStroke-str {stroke:#2C3E57;stroke-opacity:1;}</style><g opacity="1" transform="rotate(0 107.9346 303.1666)">
<svg width="104.0493" height="1.4" x="107.9346" y="303.1666" version="1.1" preserveAspectRatio="none" viewBox="0 0 104.0493 1.4">
  <defs><rect x="0" y="0" width="104.0493" height="1.4" rx="0px" ry="0px" id="id-5kldYRpCP1681895920445"></rect></defs><use class="icon1 shapeStroke-str" style="stroke-width:0;" xlink:href="#id-5kldYRpCP1681895920445"></use>
</svg>
</g><g opacity="1" transform="rotate(0 228.5509 286.8666)">
<svg width="46.8661" height="32" x="228.5509" y="286.8666" version="1.1" preserveAspectRatio="none" viewBox="19.99881172180176 45.37599182128906 160.0006866455078 109.24801635742188">
  <g transform="matrix(1 0 0 1 0 0)" ><g><path d="M120.23 154.624c-6.238 0-12.903-.92-19.976-2.761a2.286 2.286 0 0 1-1.709-2.033c-1.549-19.328 2.791-34.715 12.903-45.73 12.783-13.927 35.069-21.078 66.247-21.254.665.166 1.334.296 1.768.818.439.522.622 1.212.499 1.883-5.591 30.676-16.503 51.385-32.436 61.552-7.852 5.011-16.988 7.525-27.296 7.525zm-17.236-6.797c16.793 4.065 30.936 2.514 42.066-4.589 14.356-9.157 24.399-27.914 29.879-55.776-28.387.558-48.602 7.193-60.116 19.735-8.931 9.733-12.907 23.398-11.829 40.63z" data-color="1" class="icon1"></path><path d="M79.769 154.624c-10.31 0-19.443-2.51-27.297-7.525-15.934-10.167-26.847-30.876-32.436-61.552a2.29 2.29 0 0 1 2.255-2.701h.013c31.178.177 53.468 7.329 66.249 21.254 10.107 11.015 14.449 26.402 12.898 45.73a2.286 2.286 0 0 1-1.709 2.033c-7.071 1.84-13.737 2.761-19.973 2.761zM25.063 87.462c5.48 27.861 15.523 46.619 29.875 55.776 11.136 7.108 25.279 8.65 42.063 4.589 1.084-17.232-2.891-30.897-11.822-40.63C73.667 94.655 53.45 88.02 25.063 87.462zm74.105 62.185h.043-.043z" data-color="1" class="icon1"></path><path d="M101.456 150.277c-.464 0-.929-.145-1.329-.426-15.8-11.237-24.795-24.45-26.736-39.275-2.452-18.742 6.398-40.412 26.302-64.411.869-1.052 2.659-1.052 3.528 0 19.904 23.999 28.754 45.668 26.3 64.411-1.939 14.824-10.934 28.038-26.734 39.275a2.325 2.325 0 0 1-1.331.426zm0-99.032c-17.82 22.107-25.731 41.857-23.523 58.739 1.715 13.099 9.626 24.923 23.523 35.171 13.895-10.248 21.808-22.073 23.521-35.171 2.212-16.882-5.701-36.632-23.521-58.739z" data-color="1" class="icon1"></path></g></g>
</svg>
</g><g opacity="1" transform="rotate(0 107.9346 148.1666)">
<svg width="288.0987" height="120" x="107.9346" y="148.1666" version="1.1" preserveAspectRatio="none" viewBox="-0.4 -28.56 169.4 70.56">
  <g transform="matrix(1 0 0 1 0 0)" class="companyName"><path id="id-D6z1nYkh14" d="M10.04-1.64L10.04-1.64Q9.92-2.20 9.92-3.80Q9.92-5.40 10.52-7.20L10.52-7.20L10.88-7.20Q10.84-6.76 10.84-6.32L10.84-6.32Q10.84-3.88 12.32-2.26Q13.80-0.64 16.24-0.64L16.24-0.64Q18.76-0.64 20.38-2.16Q22.00-3.68 22.00-5.98Q22.00-8.28 20.44-9.72L20.44-9.72L12.76-16.84Q10.60-18.84 10.60-21.68Q10.60-24.52 12.50-26.54Q14.40-28.56 17.64-28.56L17.64-28.56Q19.16-28.56 21.08-28.16L21.08-28.16L22.64-28.16L22.64-23.24L22.28-23.24Q22.28-25.12 20.98-26.24Q19.68-27.36 17.64-27.36Q15.60-27.36 14.22-26Q12.84-24.64 12.84-22.60Q12.84-20.56 14.44-19.08L14.44-19.08L22.32-11.80Q24.32-9.96 24.32-6.76Q24.32-3.56 22.28-1.50Q20.24 0.56 16.84 0.56L16.84 0.56Q15.08 0.56 13.10 0.02Q11.12-0.52 10.04-1.64Z M57.16-23.60L56.48-23.60Q55.60-23.60 54.96-23.02Q54.32-22.44 54.28-21.60L54.28-21.60L54.28-4.56Q54.28-2.24 54.56-0.16L54.56-0.16L54.64 0.56L54.28 0.56L33.48-19.16L33.48-2.48Q33.48-1.60 34.12-1Q34.76-0.40 35.68-0.40L35.68-0.40L36.36-0.40L36.36 0L28.80 0L28.80-0.40L29.48-0.40Q30.40-0.40 31.04-1Q31.68-1.60 31.68-2.48L31.68-2.48L31.68-19.60Q31.68-22.04 31.40-23.96L31.40-23.96L31.32-24.60L31.76-24.56L52.52-5L52.52-21.60Q52.44-22.44 51.80-23.02Q51.16-23.60 50.28-23.60L50.28-23.60L49.60-23.60L49.60-24L57.16-24L57.16-23.60Z M61.56-0.40L62.12-0.40Q63.08-0.40 63.74-1.02Q64.40-1.64 64.44-2.52L64.44-2.52L64.44-21.52Q64.44-22.40 63.76-23Q63.08-23.60 62.12-23.60L62.12-23.60L61.56-23.60L61.56-24L73.24-24Q74.88-24 76.12-24.24Q77.36-24.48 77.72-24.64L77.72-24.64L77.72-20.08L77.28-20.12L77.28-20.72Q77.28-21.56 76.72-22.16Q76.16-22.76 75.28-22.76L75.28-22.76L66.96-22.76L66.96-12.60L73.80-12.60Q74.60-12.60 75.02-13.08Q75.44-13.56 75.44-14.28L75.44-14.28L75.44-14.80L75.88-14.80L75.88-9.20L75.44-9.20L75.44-9.72Q75.44-10.84 74.60-11.24L74.60-11.24Q74.28-11.36 73.92-11.40L73.92-11.40L66.96-11.40L66.96-1.24L73.24-1.24Q75.08-1.24 76.34-1.88Q77.60-2.52 78.26-3.40Q78.92-4.28 79.60-5.72L79.60-5.72L80-5.72L77.80 0L61.56 0L61.56-0.40Z M101.12-0.40L101.60-0.40Q102.52-0.40 103.20-1.02Q103.88-1.64 103.92-2.52L103.92-2.52L103.92-11.24L89.16-11.24L89.16-2.52Q89.20-1.64 89.88-1.02Q90.56-0.40 91.48-0.40L91.48-0.40L91.96-0.40L91.96 0L83.80 0L83.80-0.40L84.28-0.40Q85.24-0.40 85.90-1.04Q86.56-1.68 86.60-2.56L86.60-2.56L86.60-21.44Q86.56-22.32 85.88-22.96Q85.20-23.60 84.28-23.60L84.28-23.60L83.80-23.60L83.80-24L91.96-24L91.96-23.60L91.48-23.60Q90.56-23.60 89.88-22.98Q89.20-22.36 89.16-21.48L89.16-21.48L89.16-12.44L103.92-12.44L103.92-21.44Q103.92-22.32 103.40-22.80L103.40-22.80Q102.56-23.60 101.60-23.60L101.60-23.60L101.12-23.60L101.12-24L109.28-24L109.28-23.60L108.80-23.60Q107.88-23.60 107.20-23Q106.52-22.40 106.48-21.52L106.48-21.52L106.48-2.52Q106.52-1.64 107.00-1.20L107.00-1.20Q107.88-0.40 108.80-0.40L108.80-0.40L109.28-0.40L109.28 0L101.12 0L101.12-0.40Z M138.64-0.40L138.64-0.40L138.96-0.40L138.96 0L130.76 0L130.76-0.40L131.08-0.40Q131.84-0.40 132.24-0.92Q132.64-1.44 132.64-1.90Q132.64-2.36 132.48-2.80L132.48-2.80L130.28-8.12L120.16-8.12L117.96-2.92Q117.76-2.40 117.76-1.94Q117.76-1.48 118.16-0.94Q118.56-0.40 119.36-0.40L119.36-0.40L119.68-0.40L119.68 0L112.04 0L112.04-0.40L112.36-0.40Q113.20-0.40 114.06-0.98Q114.92-1.56 115.48-2.72L115.48-2.72Q124.24-21.44 124.60-22.32L124.60-22.32Q125.28-24 125.32-24.56L125.32-24.56L125.68-24.56L135.56-2.72Q136.72-0.40 138.64-0.40ZM125.32-20.28L120.68-9.32L129.80-9.32L125.32-20.28Z M136.52-20L136.16-20.20Q136.88-23.60 136.88-25.18Q136.88-26.76 136.80-28L136.80-28L139.60-28.56Q139.60-28.36 139.60-27.72Q139.60-27.08 139.38-25.62Q139.16-24.16 138.42-22.40Q137.68-20.64 136.52-20L136.52-20Z M144.68-1.32L144.68-1.32Q144.56-1.80 144.56-3.28Q144.56-4.76 145.08-6.28L145.08-6.28L145.56-6.28Q145.52-5.92 145.52-5.56L145.52-5.56Q145.52-3.40 146.94-2.02Q148.36-0.64 150.88-0.64L150.88-0.64Q153.52-0.64 155-1.86Q156.48-3.08 156.48-5.02Q156.48-6.96 155.04-8.24L155.04-8.24L147.04-14.40Q145.12-16.04 145.12-18.80L145.12-18.80Q145.12-20.36 145.98-21.68Q146.84-23 148.38-23.78Q149.92-24.56 152-24.56Q154.08-24.56 155.68-24.20L155.68-24.20L157-24.20L157.08-19.84L156.64-19.84Q156.64-21.52 155.48-22.44Q154.32-23.36 152.16-23.36Q150-23.36 148.60-22.26Q147.20-21.16 147.20-19.42Q147.20-17.68 148.76-16.40L148.76-16.40L156.84-10.16Q158.68-8.64 158.68-5.92Q158.68-3.20 156.62-1.32Q154.56 0.56 151.60 0.56L151.60 0.56Q149.64 0.56 147.68 0.08Q145.72-0.40 144.68-1.32Z M28.60 41.60L28.60 41.60L28.92 41.60L28.92 42L19.92 42L19.92 41.60L20.28 41.60Q21.12 41.60 21.54 41.06Q21.96 40.52 21.96 40.04Q21.96 39.56 21.80 39.08L21.80 39.08L19.24 32.28L8.44 32.28L5.76 39.12Q5.60 39.60 5.60 40.06Q5.60 40.52 6.02 41.06Q6.44 41.60 7.28 41.60L7.28 41.60L7.64 41.60L7.64 42L-0.40 42L-0.40 41.60L-0.04 41.60Q0.96 41.60 1.92 40.96Q2.88 40.32 3.48 39.08L3.48 39.08L12.52 17.56Q14 14.32 14 13.44L14 13.44L14.36 13.44L25.08 39.08Q25.64 40.32 26.60 40.96Q27.56 41.60 28.60 41.60ZM13.96 18.24L8.92 31.08L18.76 31.08L13.96 18.24Z M38.44 31.04L38.44 30.64Q39.36 30.88 40.12 30.88Q40.88 30.88 41.36 30.84Q41.84 30.80 42.72 30.58Q43.60 30.36 44.32 29.88L44.32 29.88Q46 28.84 46.80 26.60L46.80 26.60Q47.08 25.80 47.08 24.44L47.08 24.44Q47.08 22 45.40 20.60Q43.72 19.20 40.76 19.20L40.76 19.20L36.88 19.20L36.88 39.44Q36.92 40.72 38.04 41.32L38.04 41.32Q38.56 41.60 39.20 41.60L39.20 41.60L39.76 41.60L39.76 42L31.48 42L31.48 41.60L32.04 41.60Q33 41.60 33.66 40.98Q34.32 40.36 34.36 39.48L34.36 39.48L34.36 20.52Q34.32 19.60 33.66 19Q33 18.40 32.04 18.40L32.04 18.40L31.48 18.40L31.48 18L40.84 18Q45.04 18 47.50 19.84Q49.96 21.68 49.96 24.80L49.96 24.80Q49.96 27.04 48.92 28.72L48.92 28.72Q46.88 32 42.60 32L42.60 32Q40.48 32 38.44 31.04L38.44 31.04Z M61.36 31.04L61.36 30.64Q62.28 30.88 63.04 30.88Q63.80 30.88 64.28 30.84Q64.76 30.80 65.64 30.58Q66.52 30.36 67.24 29.88L67.24 29.88Q68.92 28.84 69.72 26.60L69.72 26.60Q70 25.80 70 24.44L70 24.44Q70 22 68.32 20.60Q66.64 19.20 63.68 19.20L63.68 19.20L59.80 19.20L59.80 39.44Q59.84 40.72 60.96 41.32L60.96 41.32Q61.48 41.60 62.12 41.60L62.12 41.60L62.68 41.60L62.68 42L54.40 42L54.40 41.60L54.96 41.60Q55.92 41.60 56.58 40.98Q57.24 40.36 57.28 39.48L57.28 39.48L57.28 20.52Q57.24 19.60 56.58 19Q55.92 18.40 54.96 18.40L54.96 18.40L54.40 18.40L54.40 18L63.76 18Q67.96 18 70.42 19.84Q72.88 21.68 72.88 24.80L72.88 24.80Q72.88 27.04 71.84 28.72L71.84 28.72Q69.80 32 65.52 32L65.52 32Q63.40 32 61.36 31.04L61.36 31.04Z M99.32 41.60L99.32 41.60L99.64 41.60L99.64 42L91.44 42L91.44 41.60L91.76 41.60Q92.52 41.60 92.92 41.08Q93.32 40.56 93.32 40.10Q93.32 39.64 93.16 39.20L93.16 39.20L90.96 33.88L80.84 33.88L78.64 39.08Q78.44 39.60 78.44 40.06Q78.44 40.52 78.84 41.06Q79.24 41.60 80.04 41.60L80.04 41.60L80.36 41.60L80.36 42L72.72 42L72.72 41.60L73.04 41.60Q73.88 41.60 74.74 41.02Q75.60 40.44 76.16 39.28L76.16 39.28Q84.92 20.56 85.28 19.68L85.28 19.68Q85.96 18 86 17.44L86 17.44L86.36 17.44L96.24 39.28Q97.40 41.60 99.32 41.60ZM86 21.72L81.36 32.68L90.48 32.68L86 21.72Z M109.92 19.24L109.92 19.24L107.80 19.24L107.80 39.44Q107.84 40.68 108.92 41.32L108.92 41.32Q109.44 41.60 110.08 41.60L110.08 41.60L110.60 41.60L110.64 42L102.44 42L102.44 41.60L103 41.60Q103.92 41.60 104.58 40.98Q105.24 40.36 105.24 39.48L105.24 39.48L105.24 20.48Q105.24 19.60 104.58 19Q103.92 18.40 103 18.40L103 18.40L102.44 18.40L102.44 18L112.48 18Q116.24 18 118.42 19.72Q120.60 21.44 120.60 24.24Q120.60 27.04 118.84 28.92Q117.08 30.80 114.36 31.08L114.36 31.08Q115.64 31.64 117.44 34.20L117.44 34.20Q117.40 34.20 118.82 35.96Q120.24 37.72 121.10 38.70Q121.96 39.68 122.52 40.20L122.52 40.20Q124 41.60 125.92 41.60L125.92 41.60L125.92 42L124.68 42Q121.52 42 119.72 40.76L119.72 40.76Q118.36 39.84 117.24 38.48L117.24 38.48Q117 38.16 115.22 35.66Q113.44 33.16 113.32 33L113.32 33Q111.16 30.32 109.28 30.32L109.28 30.32L109.28 29.92Q113.96 29.92 114.92 29.44L114.92 29.44Q116.24 28.76 116.72 28L116.72 28Q117.72 26.40 117.72 24.48L117.72 24.48Q117.72 22.04 116.28 20.72Q114.84 19.40 112.40 19.28L112.40 19.28Q111.32 19.24 109.92 19.24Z M128.32 41.60L128.88 41.60Q129.84 41.60 130.50 40.98Q131.16 40.36 131.20 39.48L131.20 39.48L131.20 20.48Q131.20 19.60 130.52 19Q129.84 18.40 128.88 18.40L128.88 18.40L128.32 18.40L128.32 18L140 18Q141.64 18 142.88 17.76Q144.12 17.52 144.48 17.36L144.48 17.36L144.48 21.92L144.04 21.88L144.04 21.28Q144.04 20.44 143.48 19.84Q142.92 19.24 142.04 19.24L142.04 19.24L133.72 19.24L133.72 29.40L140.56 29.40Q141.36 29.40 141.78 28.92Q142.20 28.44 142.20 27.72L142.20 27.72L142.20 27.20L142.64 27.20L142.64 32.80L142.20 32.80L142.20 32.28Q142.20 31.16 141.36 30.76L141.36 30.76Q141.04 30.64 140.68 30.60L140.68 30.60L133.72 30.60L133.72 40.76L140 40.76Q141.84 40.76 143.10 40.12Q144.36 39.48 145.02 38.60Q145.68 37.72 146.36 36.28L146.36 36.28L146.76 36.28L144.56 42L128.32 42L128.32 41.60Z M150.56 41.60L151.12 41.60Q152.08 41.60 152.74 40.98Q153.40 40.36 153.44 39.48L153.44 39.48L153.44 20.56Q153.40 19.68 152.70 19.04Q152.00 18.40 151.04 18.40L151.04 18.40L150.56 18.40L150.56 18L158.84 18L158.84 18.40L158.36 18.40Q157.40 18.40 156.70 19.04Q156 19.68 156 20.56L156 20.56L156 40.76L162.24 40.76Q164.08 40.76 165.36 40.12Q166.64 39.48 167.30 38.60Q167.96 37.72 168.60 36.28L168.60 36.28L169 36.28L166.80 42L150.56 42L150.56 41.60Z"/></g>
</svg>
</g><g opacity="1" transform="rotate(0 291.984 303.1666)">
<svg width="104.0493" height="1.4" x="291.984" y="303.1666" version="1.1" preserveAspectRatio="none" viewBox="0 0 104.0493 1.4">
  <defs><rect x="0" y="0" width="104.0493" height="1.4" rx="0px" ry="0px" id="id-q6WP-wJgV1681895920445"></rect></defs><use class="icon1 aq6WP-wJgVstrokeColor-str" style="stroke-width:0;" xlink:href="#id-q6WP-wJgV1681895920445"></use>
</svg>
</g></svg></svg>