<?xml version="1.0" encoding="UTF-8" standalone="no" ?>
<!DOCTYPE svg PUBLIC "-//W3C//DTD SVG 1.1//EN" "http://www.w3.org/Graphics/SVG/1.1/DTD/svg11.dtd">
<svg xmlns="http://www.w3.org/2000/svg" xmlns:xlink="http://www.w3.org/1999/xlink" version="1.1" width="1080" height="1080" viewBox="0 0 1080 1080" xml:space="preserve">
<desc>Created with Fabric.js 5.2.4</desc>
<defs>
</defs>
<g transform="matrix(1 0 0 1 540 540)" id="7d7748d1-28f8-45b8-8f43-dc5f6fb13648"  >
<rect style="stroke: none; stroke-width: 1; stroke-dasharray: none; stroke-linecap: butt; stroke-dashoffset: 0; stroke-linejoin: miter; stroke-miterlimit: 4; fill: rgb(255,255,255); fill-rule: nonzero; opacity: 1; visibility: hidden;" vector-effect="non-scaling-stroke"  x="-540" y="-540" rx="0" ry="0" width="1080" height="1080" />
</g>
<g transform="matrix(1 0 0 1 540 540)" id="34397034-f9ce-4e2c-8419-3e120e50b7c5"  >
</g>
<g transform="matrix(0 0 0 0 529.42 540)"  >
<path style="stroke: none; stroke-width: 1; stroke-dasharray: none; stroke-linecap: butt; stroke-dashoffset: 0; stroke-linejoin: miter; stroke-miterlimit: 4; fill: rgb(12,12,12); fill-rule: nonzero; opacity: 1;" vector-effect="non-scaling-stroke"  transform=" translate(-29999.19, -29999.94)" d="M 44750 54476 C 42107 52056 40001 49463 38280 46763 C 34520 50967 30443 52054 26541 51645 C 22623 51235 18911 49313 15878 47545 C 15687 47435 15622 47190 15733 47000 C 15761 46951 15799 46910 15841 46879 C 17679 45391 19681 44259 21707 43451 C 24958 42154 28274 41691 31082 41926 C 33277 42110 35174 42724 36509 43705 C 36344 43391 36183 43075 36026 42759 C 35533 41765 35080 40761 34659 39752 C 34621 39769 34579 39781 34535 39785 C 27433 40538 22743 38085 19506 34388 C 16298 30725 14544 25855 13277 21696 C 13213 21485 13332 21263 13543 21199 C 13590 21185 13637 21180 13684 21183 L 13684 21182 C 15601 21309 17455 21635 19217 22118 C 20644 22510 22009 23004 23296 23580 C 22931 22855 22638 22103 22405 21333 C 21267 17565 21602 13397 22059 9914 C 22087 9696 22288 9542 22506 9570 C 22561 9577 22612 9595 22657 9622 C 24743 10742 26562 12149 28090 13703 C 28999 14627 29805 15603 30505 16603 C 30996 14364 32065 12399 33390 10642 C 34849 8708 36622 7025 38268 5501 C 38429 5352 38681 5362 38831 5523 C 38865 5559 38890 5600 38908 5644 L 38909 5643 C 39800 7842 40301 10093 40482 12271 C 40773 15755 40247 19062 39200 21682 C 38135 24348 36521 26317 34663 27070 C 34318 27210 33966 27308 33607 27362 C 33489 27883 33315 28365 33082 28800 C 32860 29215 32586 29586 32259 29908 C 32249 29918 32238 29928 32227 29937 C 33461 33409 34832 36907 36622 40275 C 36655 39640 36750 38991 36897 38332 C 36848 38287 36810 38230 36788 38163 C 36781 38141 36775 38118 36772 38095 C 36559 37884 36381 37640 36235 37369 C 35617 36215 35625 34565 36197 32802 C 36754 31086 37848 29246 39416 27651 C 40391 26660 41551 25762 42881 25047 C 42926 25020 42977 25002 43032 24995 C 43250 24967 43450 25120 43479 25339 C 43770 27556 43983 30212 43255 32620 C 42522 35047 40852 37201 37397 38380 C 37178 39347 37072 40287 37119 41187 C 37242 41407 37367 41626 37494 41845 C 39738 45711 42615 49375 46576 52599 C 46697 52698 46749 52832 46737 52993 C 46729 53110 46674 53272 46584 53442 C 46510 53582 46403 53745 46275 53903 C 45961 54289 45509 54637 45015 54602 C 44910 54595 44817 54547 44750 54475 z M 17357 46727 C 20836 46147 24066 45751 27259 45596 C 30615 45433 33925 45536 37432 45971 C 37303 45698 37138 45440 36941 45197 C 35818 43812 33664 42946 31017 42723 C 28319 42496 25131 42943 22001 44191 C 20414 44824 18842 45664 17357 46727 z M 37462 46477 C 33950 46036 30639 45931 27282 46094 C 23992 46254 20653 46673 17032 47289 C 19844 48884 23171 50491 26622 50852 C 30214 51228 33968 50249 37462 46477 z M 42815 26508 C 42349 27434 41842 28386 41328 29350 C 39893 32041 38410 34823 37642 37444 C 40465 36335 41861 34472 42490 32391 C 43064 30490 43012 28393 42815 26509 z M 37156 37329 C 37936 34651 39437 31837 40889 29115 C 41403 28152 41910 27200 42378 26268 C 41485 26840 40685 27500 39985 28212 C 38507 29714 37478 31443 36957 33050 C 36451 34610 36425 36037 36939 36995 C 37003 37114 37075 37226 37157 37330 z M 14390 22039 C 17296 25331 20187 27946 23330 30345 C 26455 32730 29827 34902 33708 37313 C 32852 34976 32140 32619 31487 30278 C 27850 29030 25490 27087 23993 24791 C 22447 24022 20775 23372 19009 22887 C 17533 22482 15988 22191 14391 22040 z M 33992 38076 C 29865 35519 26309 33247 23027 30742 C 20031 28455 17261 25973 14490 22901 C 15696 26628 17356 30723 20106 33863 C 23170 37362 27615 39688 34353 39001 C 34230 38693 34110 38385 33992 38076 z M 38515 6856 C 37945 8844 37178 10663 36404 12498 C 35113 15559 33804 18665 33387 22655 C 33745 24039 33868 25356 33745 26525 C 33954 26478 34161 26413 34364 26331 C 36018 25661 37476 23854 38460 21390 C 39463 18879 39966 15700 39686 12338 C 39536 10536 39160 8684 38515 6858 z M 33033 21481 C 33563 17954 34762 15111 35946 12305 C 36698 10522 37443 8754 38002 6839 C 36630 8131 35221 9543 34029 11123 C 32622 12989 31520 15091 31150 17512 C 31148 17528 31144 17544 31140 17560 C 31955 18865 32590 20193 33034 21481 z M 23320 10921 C 25083 13861 26770 16759 28187 19689 C 29732 22885 30953 26115 31594 29471 L 31609 29476 C 31629 29426 31659 29379 31700 29339 C 31970 29073 32196 28767 32379 28425 C 33221 26853 33186 24531 32366 22005 C 31531 19431 29885 16665 27521 14262 C 26305 13025 24900 11886 23319 10920 z M 31046 29269 C 30400 26068 29221 22973 27738 19906 C 26291 16913 24552 13941 22737 10920 C 22358 14119 22171 17791 23171 21102 C 23496 22179 23949 23219 24564 24195 C 24632 24250 24679 24324 24700 24406 C 26015 26395 28028 28100 31046 29270 z M 35911 40638 C 36175 41230 36452 41820 36743 42406 C 38740 46432 41395 50297 45182 53791 C 45339 53741 45513 53577 45657 53401 C 45747 53290 45823 53173 45879 53068 L 45882 53062 C 41935 49808 39056 46125 36804 42246 C 36495 41713 36198 41177 35911 40638 z" stroke-linecap="round" />
</g>
<g transform="matrix(0.77 0 0 0.77 441.66 540)" id="id-D6z1nYkh7"  >
<path style="stroke: none; stroke-width: 1; stroke-dasharray: none; stroke-linecap: butt; stroke-dashoffset: 0; stroke-linejoin: miter; stroke-miterlimit: 4; fill: rgb(12,12,12); fill-rule: nonzero; opacity: 1;" vector-effect="non-scaling-stroke"  transform=" translate(-90.81, 15.59)" d="M 2.03 -4.69 L 2.03 -4.69 L 3.75 -5.35 Q 5 -3.32 7.15 -2.09 Q 9.3 -0.86 12.03 -0.86 L 12.03 -0.86 Q 15.39 -0.86 17.52 -2.52 Q 19.65 -4.18 19.65 -7.11 L 19.65 -7.11 Q 19.65 -8.52 19.06 -9.59 Q 18.48 -10.66 17.17 -11.46 Q 15.86 -12.27 14.82 -12.68 Q 13.79 -13.09 11.88 -13.75 L 11.88 -13.75 Q 10.12 -14.34 9.18 -14.67 Q 8.24 -15 6.82 -15.74 Q 5.39 -16.48 4.65 -17.23 Q 3.91 -17.97 3.34 -19.16 Q 2.77 -20.35 2.77 -21.8 L 2.77 -21.8 Q 2.77 -25.08 5.21 -26.99 Q 7.66 -28.91 11.88 -28.91 L 11.88 -28.91 Q 14.88 -28.91 17.19 -27.52 Q 19.49 -26.13 20.59 -24.14 L 20.59 -24.14 L 19.02 -23.52 Q 16.56 -27.3 11.76 -27.3 L 11.76 -27.3 Q 8.4 -27.3 6.5 -25.8 Q 4.61 -24.3 4.61 -21.8 L 4.61 -21.8 Q 4.61 -20.66 5.12 -19.71 Q 5.63 -18.75 6.29 -18.13 Q 6.95 -17.5 8.22 -16.89 Q 9.49 -16.29 10.37 -15.96 Q 11.25 -15.63 12.85 -15.12 L 12.85 -15.12 Q 14.49 -14.57 15.47 -14.2 Q 16.45 -13.83 17.73 -13.13 Q 19.02 -12.42 19.75 -11.66 Q 20.47 -10.9 21 -9.75 Q 21.52 -8.59 21.52 -7.19 L 21.52 -7.19 Q 21.52 -3.48 18.98 -1.39 Q 16.45 0.7 11.95 0.7 L 11.95 0.7 Q 5.27 0.7 2.03 -4.69 Z M 33.08 0 L 31.29 0 L 31.29 -28.16 L 33.43 -28.16 L 45.86 -8.01 L 49.22 -2.54 L 49.37 -2.54 Q 49.1 -5.74 49.1 -9.69 L 49.1 -9.69 L 49.1 -28.16 L 50.93 -28.16 L 50.93 0 L 48.75 0 L 36.01 -20.63 L 32.97 -25.63 L 32.85 -25.63 Q 33.08 -21.99 33.08 -18.01 L 33.08 -18.01 L 33.08 0 Z M 80.7 0 L 63.2 0 L 63.2 -28.16 L 80.23 -28.16 L 80.23 -26.6 L 64.99 -26.6 L 64.99 -15.39 L 78.78 -15.39 L 78.78 -13.87 L 64.99 -13.87 L 64.99 -1.56 L 80.7 -1.56 L 80.7 0 Z M 91.83 0 L 90.03 0 L 90.03 -28.16 L 91.83 -28.16 L 91.83 -15.31 L 107.53 -15.31 L 107.53 -28.16 L 109.37 -28.16 L 109.37 0 L 107.53 0 L 107.53 -13.79 L 91.83 -13.79 L 91.83 0 Z M 127.41 -21.95 L 123.03 -10.39 L 135.18 -10.39 L 130.85 -21.95 Q 129.6 -25.35 129.21 -26.48 L 129.21 -26.48 L 129.05 -26.48 Q 128.89 -26.05 127.41 -21.95 L 127.41 -21.95 Z M 119.17 0 L 117.14 0 L 127.96 -28.16 L 130.26 -28.16 L 141.12 0 L 139.05 0 L 135.73 -8.91 L 122.49 -8.91 L 119.17 0 Z M 148.66 -21.17 L 147.09 -21.17 L 150.41 -31.88 L 153.27 -31.88 L 148.66 -21.17 Z M 160.1 -4.69 L 160.1 -4.69 L 161.82 -5.35 Q 163.07 -3.32 165.22 -2.09 Q 167.36 -0.86 170.1 -0.86 L 170.1 -0.86 Q 173.46 -0.86 175.59 -2.52 Q 177.72 -4.18 177.72 -7.11 L 177.72 -7.11 Q 177.72 -8.52 177.13 -9.59 Q 176.54 -10.66 175.24 -11.46 Q 173.93 -12.27 172.89 -12.68 Q 171.86 -13.09 169.94 -13.75 L 169.94 -13.75 Q 168.18 -14.34 167.25 -14.67 Q 166.31 -15 164.88 -15.74 Q 163.46 -16.48 162.72 -17.23 Q 161.97 -17.97 161.41 -19.16 Q 160.84 -20.35 160.84 -21.8 L 160.84 -21.8 Q 160.84 -25.08 163.28 -26.99 Q 165.72 -28.91 169.94 -28.91 L 169.94 -28.91 Q 172.95 -28.91 175.25 -27.52 Q 177.56 -26.13 178.65 -24.14 L 178.65 -24.14 L 177.09 -23.52 Q 174.63 -27.3 169.82 -27.3 L 169.82 -27.3 Q 166.47 -27.3 164.57 -25.8 Q 162.68 -24.3 162.68 -21.8 L 162.68 -21.8 Q 162.68 -20.66 163.18 -19.71 Q 163.69 -18.75 164.36 -18.13 Q 165.02 -17.5 166.29 -16.89 Q 167.56 -16.29 168.44 -15.96 Q 169.32 -15.63 170.92 -15.12 L 170.92 -15.12 Q 172.56 -14.57 173.54 -14.2 Q 174.51 -13.83 175.8 -13.13 Q 177.09 -12.42 177.81 -11.66 Q 178.54 -10.9 179.06 -9.75 Q 179.59 -8.59 179.59 -7.19 L 179.59 -7.19 Q 179.59 -3.48 177.05 -1.39 Q 174.51 0.7 170.02 0.7 L 170.02 0.7 Q 163.34 0.7 160.1 -4.69 Z" stroke-linecap="round" />
</g>
<g transform="matrix(0.89 0 0 0.89 627.26 539.5)" id="id-a8WAvAAzme7"  >
<path style="stroke: rgb(0,0,0); stroke-opacity: 0; stroke-width: 0; stroke-dasharray: none; stroke-linecap: butt; stroke-dashoffset: 0; stroke-linejoin: miter; stroke-miterlimit: 4; fill: rgb(12,12,12); fill-rule: nonzero; opacity: 1;" vector-effect="non-scaling-stroke"  transform=" translate(-88.68, 14.08)" d="M 10.31 -21.95 L 5.94 -10.39 L 18.09 -10.39 L 13.75 -21.95 Q 12.5 -25.35 12.11 -26.48 L 12.11 -26.48 L 11.95 -26.48 Q 11.8 -26.05 10.31 -21.95 L 10.31 -21.95 Z M 2.07 0 L 0.04 0 L 10.86 -28.16 L 13.16 -28.16 L 24.02 0 L 21.95 0 L 18.63 -8.91 L 5.39 -8.91 L 2.07 0 Z M 32.35 0 L 30.55 0 L 30.55 -28.16 L 40.98 -28.16 Q 44.85 -28.16 47.18 -26 Q 49.5 -23.83 49.5 -20.2 L 49.5 -20.2 Q 49.5 -16.48 47.1 -14.34 Q 44.7 -12.19 40.95 -12.19 L 40.95 -12.19 L 32.35 -12.19 L 32.35 0 Z M 32.35 -26.6 L 32.35 -13.67 L 40.55 -13.67 Q 43.84 -13.67 45.73 -15.35 Q 47.63 -17.03 47.63 -20.2 L 47.63 -20.2 Q 47.63 -23.28 45.75 -24.94 Q 43.88 -26.6 40.48 -26.6 L 40.48 -26.6 L 32.35 -26.6 Z M 59.66 0 L 57.87 0 L 57.87 -28.16 L 68.3 -28.16 Q 72.16 -28.16 74.49 -26 Q 76.81 -23.83 76.81 -20.2 L 76.81 -20.2 Q 76.81 -16.48 74.41 -14.34 Q 72.01 -12.19 68.26 -12.19 L 68.26 -12.19 L 59.66 -12.19 L 59.66 0 Z M 59.66 -26.6 L 59.66 -13.67 L 67.87 -13.67 Q 71.15 -13.67 73.04 -15.35 Q 74.94 -17.03 74.94 -20.2 L 74.94 -20.2 Q 74.94 -23.28 73.06 -24.94 Q 71.19 -26.6 67.79 -26.6 L 67.79 -26.6 L 59.66 -26.6 Z M 88.19 -21.95 L 83.81 -10.39 L 95.96 -10.39 L 91.63 -21.95 Q 90.38 -25.35 89.98 -26.48 L 89.98 -26.48 L 89.83 -26.48 Q 89.67 -26.05 88.19 -21.95 L 88.19 -21.95 Z M 79.95 0 L 77.91 0 L 88.73 -28.16 L 91.04 -28.16 L 101.9 0 L 99.83 0 L 96.51 -8.91 L 83.27 -8.91 L 79.95 0 Z M 110.23 -26.6 L 110.23 -14.3 L 118.9 -14.3 Q 122.06 -14.3 123.82 -16 Q 125.58 -17.7 125.58 -20.51 L 125.58 -20.51 Q 125.58 -23.16 123.8 -24.88 Q 122.02 -26.6 118.55 -26.6 L 118.55 -26.6 L 110.23 -26.6 Z M 110.23 0 L 108.43 0 L 108.43 -28.16 L 119.05 -28.16 Q 123.08 -28.16 125.25 -26 Q 127.41 -23.83 127.41 -20.59 L 127.41 -20.59 Q 127.41 -17.38 125.71 -15.59 Q 124.02 -13.79 122.02 -13.36 L 122.02 -13.36 Q 123.7 -12.62 124.62 -11.25 Q 125.54 -9.88 126.05 -7.7 L 126.05 -7.7 Q 126.13 -7.34 126.34 -6.45 Q 126.55 -5.55 126.63 -5.29 Q 126.71 -5.04 126.89 -4.36 Q 127.06 -3.67 127.16 -3.42 Q 127.26 -3.16 127.43 -2.62 Q 127.61 -2.07 127.77 -1.74 Q 127.92 -1.41 128.16 -0.94 Q 128.39 -0.47 128.66 0 L 128.66 0 L 126.59 0 Q 126.01 -1.09 125.56 -2.38 Q 125.11 -3.67 124.89 -4.49 Q 124.68 -5.31 124.13 -7.58 L 124.13 -7.58 Q 123.86 -8.59 123.53 -9.39 Q 123.2 -10.2 122.59 -11.02 Q 121.98 -11.84 120.99 -12.29 Q 119.99 -12.73 118.66 -12.73 L 118.66 -12.73 L 110.23 -12.73 L 110.23 0 Z M 153.52 0 L 136.02 0 L 136.02 -28.16 L 153.05 -28.16 L 153.05 -26.6 L 137.81 -26.6 L 137.81 -15.39 L 151.6 -15.39 L 151.6 -13.87 L 137.81 -13.87 L 137.81 -1.56 L 153.52 -1.56 L 153.52 0 Z M 177.31 0 L 161.65 0 L 161.65 -28.16 L 163.45 -28.16 L 163.45 -1.56 L 177.31 -1.56 L 177.31 0 Z" stroke-linecap="round" />
</g>
</svg>